<svg xmlns="http://www.w3.org/2000/svg" width="245.768" height="189.829" viewBox="0 0 245.768 189.829">
  <g id="Group_306" data-name="Group 306" transform="translate(-817.082 -552.519)">
    <g id="Group_227" data-name="Group 227" transform="translate(917.555 528.924) rotate(30)">
      <path id="Union_2" data-name="Union 2" d="M0,6.717,9.951,0l.565.876.057.268c.816,1.234,2.435,3.588,2.944,3.644.69.075,4.223-.124,4.223.921s-.6,4.287,0,5.035,4.491,3.177,2.295,6.432-3.486,4.339-4.829,4.339h-.291s.716,4.72,4.163,6.509S2.956,42.155,2.956,42.155Z" transform="translate(52.725 76.289)" fill="#fff"/>
      <path id="Path_98" data-name="Path 98" d="M62.818,3.478s-1.031,3.04-2.081,3.612-.228,4.734-.97,5.553S56.2,14.069,56.2,14.069s1.423,10.455,2.387,12.291,1.309,11.747,0,13.134-8.547,30.736-6.9,35.166S57.067,90,54.189,96.389,36.407,111.911,35.4,111.948s-11.8,16.578-14.416,16.6S6.7,131.695,11.8,118.139,16.442,99.2,13.535,94.2s-21.705-16.149-9.4-30.236S26.892,43.547,27.766,37.637,40.58,4.031,48.8.93A13.758,13.758,0,0,1,62.818,3.478Z" transform="translate(0 72.066)" fill="#ff5771"/>
      <path id="Union_1" data-name="Union 1" d="M8.492,51.088l-.2.512q-.019-.243-.046-.488l-.125.014.1-.244C7.211,42.81,0,33.173,0,33.173s4.167-9.92,6.117-9.946,8.8-1.819,8.8-1.819,5.882-5.993,6.959-6.967,0-4.9,0-4.9l6.457-8.7L28.674,0C52.7,14.218,77.085,62.4,77.085,62.4L41.814,82.9S28.145,49.311,8.492,51.088Z" transform="translate(49.576 90.416)" fill="#000051"/>
      <path id="Path_97" data-name="Path 97" d="M0,90.8S13.835,67.622,13.835,66.82,24.25,28.793,23.6,21.193A160.269,160.269,0,0,1,23.6,2.7s1.307-2.782,1.48,3.215,0,5.646,0,5.646-.443-10.74,0-11.281S26.151-.025,26.375,1s.434,11.2.434,11.2S27,1.772,27.36,1s1.731-1.738,1.607,1.7-1.15,11.93-.546,12.652,3.651-3.946,3.7-5.463,2.105-1.472,1.687.346S28.571,22.7,27.36,24.164s1.347,27.058-.848,35.919S12.834,101.53,12.834,101.53Z" transform="translate(78.122 0)" fill="#fff"/>
      <path id="Path_94" data-name="Path 94" d="M43.427,35.584c-.554,1.441-28.786,17.993-29.058,16.591s-2.8-33.133-2.8-34.712a97.761,97.761,0,0,1,.865-10.131c.547-3.961-1.391-3.846-1.391-2.862s-.656,7.978-1.241,5-2.469-5.5-3.555-8.186S4.571.9,4.966,1.282A50.783,50.783,0,0,1,7.532,8.631c.3,1.319-.586,1.9-1.3,1.07S2.571.654,2.337,2.578s2.191,9.653,2.191,9.653S2.466,9.114,1.289,7.09,0,7.09,0,7.09s5.629,10.8,2.943,6.631-2.08-1.19-2.08-1.19a27.513,27.513,0,0,1,3.583,9.232C5.679,27.6-.249,59,4.073,62.016c2.76,1.93,21.535-2.513,34.9-6.016,7.291-1.911,12.966-3.552,12.966-3.552s-2.205-14.853-7.243-16.864c.11.039.056.019,0,0C39.7,33.9,43.427,35.584,43.427,35.584Z" transform="translate(5.898 88.588)" fill="#fff"/>
    </g>
    <path id="Path_101" data-name="Path 101" d="M19.844,4.326C30.8,4.326,35.112,8.441,35.112,19.4S30.8,39.245,19.844,39.245A19.844,19.844,0,0,1,0,19.4C0,8.441,8.884,4.326,19.844,4.326Z" transform="translate(1027.737 548.193)" fill="#ff5983"/>
  </g>
</svg>
