<svg xmlns="http://www.w3.org/2000/svg" width="667.595" height="377.897" viewBox="0 0 667.595 377.897"><g transform="translate(-7397.383 -13758.373)"><path d="M8945.151,13546.9s24.25-26.78,40.176-35.723,119.341,31.031,129.442,35.742,94.929,47.2,98,46.689,30.916,22.854,30.916,22.854l-4.253,11.586-176.182-54.223-61.026,23.664-59.283-28.244Z" transform="translate(-1203.299 297.386)" fill="#fff"/><path d="M8749.512,13607.214" transform="translate(-1294.513 334.025)" fill="none" stroke="#707070" stroke-width="1"/><path d="M8948.8,13601.1s-12.772-2.37-16.789-5.481-8.5-4.283-8.5-6.371,7.481-16.266,7.481-16.266-5.33-40.922-13.285-43.192-25.537-2.723-31.866-1.619-20.288,8.045-20.79,10.125-8.886,25.355-10.009,33.1-1.5,12.3-2.953,14.023-11.2,18.067,2.953,31.566,34.923,6.1,34.923,6.1,10.253.659,14.539,2.97,16.5,8.256,19.007,10.467S8948.8,13601.1,8948.8,13601.1Z" transform="translate(-1240.462 290.09)" fill="#fff"/><path d="M8968.545,13534.964l-76.2,103.2,56.607,69.135s13.992-18.5,17.611-18.5,46.272-1.151,55.084,5.728,53.888,14.947,57.421,14.447,50.3,20.922,50.3,20.922,55.272-6.585,76.781-35.369,74.525-83.166,74.525-83.166-179.118-50.2-189.125-48.639-47.476-14.233-68.7-25.046-33.464-9.077-45.973-5.842C8969.625,13533.071,8968.545,13534.964,8968.545,13534.964Z" transform="translate(-1215.699 291.067)" fill="#000051"/><path d="M133.7,242.143c-2.98-3.39-57.718-170.4-61.273-191.357-1.027-3.071-3.8-8.733-11.088-14.136-10.724-7.947-43.025-8.912-44.329-9.3S1.153,16.792,7.355,18.438a71.667,71.667,0,0,0,10.532,1.408l-2.346-.8C14.272,19.045-2.728,1.589.378.113S14.8,12.016,16.324,13.421s82.251,1.75,83.2,3.921c.7,1.613,1.116,17.7,1.283,26C107.227,64.7,161.172,170.06,161.172,170.06a88.626,88.626,0,0,0,12.374,0c6-.5,76.579-86.083,79.953-89.087s22.379-41.335,22.379-41.335,30.857,7.855,35.965,13.328,23.235,34.6,19.508,55.037S159.89,243.764,155.842,245.927a11.876,11.876,0,0,1-5.128.838C144.675,246.765,136.035,244.8,133.7,242.143ZM76,48.376c2.167-.351,4.921-.97,7.649-1.646,2.488-.616,5.009-1.279,7.317-1.9L80.519,41.26Z" transform="translate(7401.79 13889.506)" fill="#fff"/><path d="M8922.688,13592.862c2.1,3.847,8.954,2.711,12.366-2.246s10.352-19.021,9.313-25.633-4.822-23.958-4.822-23.958-5.787-15.353-13.97-16.654-16.764-4.728-24.619,0-22.18,15.42-24.391,15.233,3.833,4.465,6.279,8.387,26.74,22.839,25,29.122-9.155,11.138-10.78,11.138-31.472,1.773-34.367,1a5.986,5.986,0,0,0-4.89.723s-12.568,10.641-24.395,12.019-2.473,19.361-2.473,19.361,5.688,4.99.567,20.58-4.72,18.354,4.057,22.474,17.8,4,23.858-4.224,9.034-12.363,16.24-18.25,19.842-1.7,24.608-6.057.5-8.435,2.973-11.285,11.522-8.612,9.866-19.54-2.651-29.253-.975-30.562,7.406-7.108,14.522.738S8920.59,13589.017,8922.688,13592.862Z" transform="translate(-1251.52 286.976)" fill="#ff5771"/><path d="M58.315,152.307h0c-13.531,0-24.3-1.638-32.009-4.868C3.838,138.023,2.969,130.071,1.063,112.646c-.237-2.17-.483-4.413-.789-6.852a34.64,34.64,0,0,1,1.42-15.059A40.824,40.824,0,0,1,7.551,79.37a46.031,46.031,0,0,1,9.377-9.681c.051-.421,1.3-10.53,6.329-37.083a66.392,66.392,0,0,1,5.059-16.6A27.125,27.125,0,0,1,35.9,6.182C41.2,2.034,48.135.247,59.831.015,60.32,0,60.808,0,61.281,0c8.581,0,14.761,1.56,19.448,4.908,4.214,3.011,6.8,7.176,9.545,11.587l.238.383C95.757,25.31,96.3,55.029,96.538,67.72c.024,1.309.045,2.439.067,3.356.093,3.773,1.077,4.359,3.037,5.526a21.408,21.408,0,0,1,6.631,5.885c3.381,4.3,6.947,10.989,10.6,19.868,3.119,7.588,4.234,14.713,3.315,21.178a29.689,29.689,0,0,1-6.039,14.157,36.623,36.623,0,0,1-12.98,10.385A251.492,251.492,0,0,1,58.315,152.307ZM57.37,67.483h0c.486,0,.956.012,1.4.037A98.542,98.542,0,0,1,70.359,69.1a56.025,56.025,0,0,0,8.62,1.141,9.193,9.193,0,0,0,1.5-.109c.964-.163,1.779-1.455,2.422-3.84a46.562,46.562,0,0,0,1.218-8.44,91.752,91.752,0,0,0-.534-18.427c-.755-4.592-4.148-8.568-6.863-11.1A38.282,38.282,0,0,0,70.951,23.9a59.382,59.382,0,0,0-10.27-.891,42.18,42.18,0,0,0-9.08.9,20.991,20.991,0,0,0-8.291,3.6c-2.151,1.651-3.924,4.779-5.269,9.3A70.748,70.748,0,0,0,35.655,50.4c-.812,9.01-.415,17.924.092,18.952.17.345.747.512,1.763.512a54.657,54.657,0,0,0,7.308-.94l1.516-.251A72.554,72.554,0,0,1,57.37,67.483Z" transform="matrix(1, -0.017, 0.017, 1, 7397.383, 13760.476)" fill="#ff5771"/><rect width="18.621" height="13.966" transform="translate(7475.931 13926.941)" fill="#fff"/></g></svg>