<svg xmlns="http://www.w3.org/2000/svg" width="188.356" height="185.212" viewBox="0 0 188.356 185.212">
  <g id="Group_305" data-name="Group 305" transform="translate(-10459.464 -13463.758)">
    <path id="Path_154" data-name="Path 154" d="M16.217,78.939h0l-.078-.086S13.91,79.909,6.5,77.72-1.03,67.482,1.455,63.85s12.276-9.39,8.988-13S3.059,36.956,4.055,29.21s8.006-5.176,9.418-15.507S24.547,0,24.547,0l-.021.2a1.25,1.25,0,0,1,.422-.124c7.665-.8,6.523,4.891,6.523,4.891s-.847,15.685,4.288,21.594,1.758,9.921,0,16.8-10.927,7.021-7.031,10.719,7.161,2.217,8.25,15.109c.732,8.666-8.9,10.086-15.293,10.086A42.613,42.613,0,0,1,16.217,78.939Z" transform="translate(10602.402 13546.563) rotate(7)" fill="#ff5983"/>
    <path id="Path_161" data-name="Path 161" d="M28.966,140.994h0l-.14-.154s-3.98,1.887-17.225-2.024-13.44-18.285-9-24.772S24.526,97.271,18.653,90.822,5.464,66.008,7.243,52.172s14.3-9.246,16.822-27.7S43.843,0,43.843,0L43.8.359a2.233,2.233,0,0,1,.754-.222c13.69-1.421,11.651,8.736,11.651,8.736S54.7,36.888,63.869,47.442s3.14,17.72,0,30.009S44.352,89.991,51.31,96.6s12.79,3.96,14.736,26.987C67.355,139.061,50.152,141.6,38.731,141.6A76.109,76.109,0,0,1,28.966,140.994Z" transform="translate(10459.464 13473.324) rotate(-8)" fill="#ff5983"/>
    <path id="Path_134" data-name="Path 134" d="M9679.823,13596.592s.439-3.114,2.4-3.423,20.337,5.417,20.337,5.417l-1.458,6.923-21.663-7.81Z" transform="translate(863.312 -74.686)" fill="#555"/>
    <path id="Path_135" data-name="Path 135" d="M9682.779,13615.321l-22.971-4.78a26.866,26.866,0,0,1,.991-5.3c.526-1.707,1.4-3.418,2.745-3.849,2.216-.71,13.127,2.24,19.623,4.118.78.226,1.87.569,2.613.792,1.341.4,1.9.551,1.9.551Z" transform="translate(875.486 -79.375)" fill="#555"/>
    <path id="Path_136" data-name="Path 136" d="M9630.561,13602.065h0c.033-.1.063-.2.121-.416.459-1.667-.632-1.4-1.432-1.555-.843-.166-4.507,6.962-4.507,6.962s3.327-5.271,4-6.767c.407-.89.353-1.414-.49-1.556-2.594-.437-6.441,8.486-6.441,8.486s3.77-6.993,4.008-7.646a.777.777,0,0,0,.065-.273c-.044-.559-.48-.827-1.307-.794-1.071.044-7.977,10.859-7.977,10.859s-25.347,7.142-32.565,12.064-4.879,11.72-3.764,13.823,25.61,17.741,25.61,17.741l11.916-19.52s-20.258-6.564-20.374-7.622,28.893-7.769,29.233-8.242,4.67-3.325,4.635-3.975-.946-2.22-2-1.8,3.5-9.775,3.5-9.775.246-1.5-.712-1.286-5.084,8.094-5.084,8.094" transform="translate(922.544 -77.349)" fill="#fff"/>
    <path id="Path_131" data-name="Path 131" d="M9775.032,13630.841s25.295,11.473,25.823,14.942.372,6.823-2.748,11.579-4.414,5.3-4.414,5.3l-10.367-11.7s5.2-4.373,4.563-5.178-15.5-6.712-15.5-6.712Z" transform="translate(809.659 -96.437)" fill="#fff"/>
    <path id="Path_137" data-name="Path 137" d="M9719.733,13634.509s.386-5.556-.612-6.194-8.1-1-8.126-6.734a32.68,32.68,0,0,1,2.193-11.114s-2.322-2.183-2.193-2.613a7.483,7.483,0,0,1,1.379-1.558s3.251-10.744,3.582-10.744,5.362-12.043,11.9-9.731,12.662,2.13,12.06,14.353a24.38,24.38,0,0,1-1.706,8.343v-.662s-.143.717-.4,2.034c-1.039,5.308-3.972,20.583-3.746,22.634a44.858,44.858,0,0,0,.852,4.895l-15.179,2.268" transform="translate(845.099 -70.281)" fill="#fff"/>
    <path id="Path_132" data-name="Path 132" d="M9653.96,13679.063s21.036,8.442,24.912,9.088a.776.776,0,0,0,.394-.01c1.19-.6.676,3.769,7.3,2.719s7.056-3.387,7.056-3.387l13.452-10.006,12.507,10.006-7.549,11.63,3.563,71.982-60.462-1.543,11.75-60.766-26.893-10.543Z" transform="translate(886.08 -123.348)" fill="#000051" opacity="0.995"/>
    <path id="Union_8" data-name="Union 8" d="M16.706,44.366c-4.667-.488-6.239,1.269-6.239,1.269a2.8,2.8,0,0,0-.062-.936c-.749.01-1.976-.842-3.32-1.733a.988.988,0,0,1-.332,0,1.475,1.475,0,0,0-.52.1,2.578,2.578,0,0,1-1.63-.055,1.249,1.249,0,0,1-.227-.088c-.134.1-.276.2-.423.307C2.5,44.316.9,43.677.178,41.707c-.423-1.162-.009-3.319.367-5.25q.006-.111.009-.22C.641,35.3.786,34.2.973,33.072A.338.338,0,0,1,1,32.929c.6-3.545,1.592-7.37,2.454-7.71,1.546-.608,2.958.537,4.616,2.2s4.895-.853,4.895-.853,2.835-8.827,2.954-10.12l-.336-.178L1.965,8.849S6.3,6.876,8.02,4.373A10.244,10.244,0,0,1,14.389.16C16.828-.461,29.771.482,30.568,7.4S29.174,23.5,29.174,23.5h0L25.056,46.77A25.949,25.949,0,0,0,16.706,44.366Z" transform="translate(10554.396 13515.427)" fill="#ff5771"/>
    <path id="Path_140" data-name="Path 140" d="M.3.978S.9.075,1.545,0,3.426.723,3.184,1.489.225,4.151.043,4.893A38.4,38.4,0,0,1,.3.978Z" transform="matrix(0.995, 0.105, -0.105, 0.995, 10574.314, 13535.529)" fill="#fff"/>
    <path id="Path_141" data-name="Path 141" d="M9711.778,13649.568c.083.023,2.977.5,3.713,1.925s.729,1.056.729,1.056-4.752.33-4.984.279S9711.7,13649.547,9711.778,13649.568Z" transform="translate(844.984 -106.431)" fill="#fff"/>
    <path id="Path_155" data-name="Path 155" d="M10904.942,13655.268" transform="translate(-257.122 -110.536)" fill="none" stroke="#707070" stroke-width="1"/>
    <g id="Group_275" data-name="Group 275" transform="translate(10608.972 13564.222) rotate(7)">
      <path id="Path_156" data-name="Path 156" d="M4.84,0S-1.1,50.365.182,65.957.942,82.992.942,82.992" transform="translate(8.989 0)" fill="none" stroke="#fff" stroke-width="3"/>
      <path id="Path_158" data-name="Path 158" d="M10.569,4.125,0,0" transform="translate(0 23.141)" fill="none" stroke="#fff" stroke-width="3"/>
      <path id="Path_159" data-name="Path 159" d="M0,1.563,9.97,0" transform="translate(8.989 46.623)" fill="none" stroke="#fff" stroke-width="3"/>
      <path id="Path_160" data-name="Path 160" d="M0,.724,8.8,0" transform="translate(12.624 10.909)" fill="none" stroke="#fff" stroke-width="3"/>
    </g>
    <g id="Group_276" data-name="Group 276" transform="translate(10478.963 13500.753) rotate(-8)">
      <path id="Path_156-2" data-name="Path 156" d="M8.644,0S-1.969,89.958.325,117.807s1.358,30.425,1.358,30.425" transform="translate(16.055 0)" fill="none" stroke="#fff" stroke-width="4"/>
      <path id="Path_158-2" data-name="Path 158" d="M18.878,7.367,0,0" transform="translate(0 41.332)" fill="none" stroke="#fff" stroke-width="4"/>
      <path id="Path_159-2" data-name="Path 159" d="M0,2.79,17.807,0" transform="translate(16.054 83.275)" fill="none" stroke="#fff" stroke-width="4"/>
      <path id="Path_160-2" data-name="Path 160" d="M0,1.292,15.715,0" transform="translate(22.548 19.485)" fill="none" stroke="#fff" stroke-width="4"/>
    </g>
  </g>
</svg>
