<?xml version="1.0" standalone="no"?>
<svg
  width="600"
  height="600"
  viewBox="0 0 600 600"
  xmlns="http://www.w3.org/2000/svg"
>
  <g transform="translate(300,300)">
    <path d="M117.7,-172.5C151.8,-161.3,178.3,-127.4,204.5,-88.1C230.8,-48.7,256.9,-4,251.7,36.6C246.4,77.1,209.7,113.5,173.2,143.1C136.7,172.6,100.3,195.2,58.2,215.5C16.1,235.7,-31.8,253.6,-68.3,239.7C-104.8,225.8,-129.9,180,-142.3,138.5C-154.8,96.9,-154.6,59.5,-153.2,26C-151.8,-7.5,-149.1,-37.2,-137.5,-62.9C-125.9,-88.6,-105.4,-110.3,-81,-126C-56.6,-141.7,-28.3,-151.4,6.8,-161.9C41.8,-172.4,83.6,-183.8,117.7,-172.5Z" fill="#ff5771" />
  </g>
</svg>
    