<?xml version="1.0" standalone="no"?>
<svg
  width="600"
  height="600"
  viewBox="0 0 600 600"
  xmlns="http://www.w3.org/2000/svg"
>
  <g transform="translate(300,300)">
    <path d="M105.6,-168.8C135.2,-145.3,156.3,-113.2,169.8,-78.9C183.3,-44.7,189.1,-8.3,181,23.7C172.8,55.8,150.6,83.6,125.7,104.6C100.8,125.7,73.1,140.1,41.8,155.1C10.5,170.2,-24.3,185.8,-57.2,182C-90.1,178.2,-121,154.9,-155.8,127.8C-190.7,100.6,-229.5,69.6,-249.2,27.1C-268.9,-15.4,-269.5,-69.4,-247.1,-110.5C-224.6,-151.5,-179.1,-179.7,-134.1,-196.1C-89,-212.5,-44.5,-217.3,-3.2,-212.2C38,-207.2,76.1,-192.3,105.6,-168.8Z" fill="#ff5771" />
  </g>
</svg>
    