<?xml version="1.0" standalone="no"?>
<svg
  width="600"
  height="600"
  viewBox="0 0 600 600"
  xmlns="http://www.w3.org/2000/svg"
>
  <g transform="translate(300,300)">
    <path d="M144.6,-218C183.3,-200.2,207.6,-153.1,223,-105.8C238.4,-58.6,244.9,-11.2,238.3,34.2C231.6,79.5,211.8,122.9,178,144.7C144.3,166.5,96.7,166.7,56.8,165.9C16.9,165,-15.2,163.1,-56.5,164C-97.8,164.9,-148.3,168.6,-181.6,147.6C-215,126.7,-231.2,81.1,-234.2,35.9C-237.1,-9.2,-226.8,-54.1,-209.2,-96.7C-191.5,-139.4,-166.6,-179.9,-130.5,-198.9C-94.4,-217.9,-47.2,-215.5,2.9,-220C53,-224.4,106,-235.9,144.6,-218Z" fill="#ff5771" />
  </g>
</svg>
    