<?xml version="1.0" standalone="no"?>
<svg
  width="600"
  height="600"
  viewBox="0 0 600 600"
  xmlns="http://www.w3.org/2000/svg"
>
  <g transform="translate(300,300)">
    <path d="M92,-140.3C122.3,-123.6,152.1,-103.3,176.5,-73.6C200.8,-44,219.7,-4.8,226.9,41.5C234.1,87.9,229.7,141.5,202.6,179.2C175.6,216.8,126,238.4,76.6,246.2C27.2,253.9,-21.9,247.9,-62.6,228.8C-103.3,209.7,-135.5,177.5,-166.4,143.4C-197.3,109.2,-226.8,73,-230.1,34.5C-233.4,-4,-210.4,-44.8,-184.2,-76.7C-158.1,-108.6,-128.8,-131.7,-97.5,-148C-66.3,-164.2,-33.2,-173.6,-1.2,-171.8C30.8,-170,61.6,-156.9,92,-140.3Z" fill="#ff5771" />
  </g>
</svg>
    