<?xml version="1.0" standalone="no"?>
<svg
  width="600"
  height="600"
  viewBox="0 0 600 600"
  xmlns="http://www.w3.org/2000/svg"
>
  <g transform="translate(300,300)">
    <path d="M105.6,-163.4C145.9,-138.3,193.9,-124.4,215.2,-93.6C236.5,-62.9,231.1,-15.2,226.6,34.2C222,83.6,218.3,134.8,191,164.6C163.7,194.3,112.9,202.7,63.1,219.4C13.3,236,-35.3,261,-77,253C-118.7,245,-153.4,204,-186.3,163.1C-219.2,122.2,-250.1,81.3,-263,33.9C-275.9,-13.5,-270.8,-67.4,-246.9,-109.9C-223,-152.4,-180.4,-183.4,-136.2,-206.7C-91.9,-230,-46,-245.5,-6.7,-235.1C32.6,-224.8,65.2,-188.5,105.6,-163.4Z" fill="#ff5771" />
  </g>
</svg>
    