<?xml version="1.0" standalone="no"?>
<svg
  width="600"
  height="600"
  viewBox="0 0 600 600"
  xmlns="http://www.w3.org/2000/svg"
>
  <g transform="translate(300,300)">
    <path d="M131.2,-188.3C170.4,-178.9,203,-143.2,214,-102.6C225,-62,214.5,-16.3,205.6,27.9C196.6,72.2,189.4,115,166.8,148.8C144.2,182.6,106.2,207.4,64.4,220.1C22.5,232.8,-23.1,233.5,-59.8,216.7C-96.5,200,-124.2,165.8,-138.8,130.5C-153.4,95.2,-154.9,58.9,-162,22.1C-169.1,-14.6,-181.9,-51.8,-180.3,-93.7C-178.8,-135.5,-162.9,-182.2,-130.5,-194.7C-98,-207.2,-49,-185.6,-1.5,-183.2C46,-180.8,91.9,-197.7,131.2,-188.3Z" fill="#ff5771" />
  </g>
</svg>
    