<svg xmlns="http://www.w3.org/2000/svg" width="41.469" height="41.469" viewBox="0 0 41.469 41.469">
  <g id="Images-Photography_Taking-Pictures_taking-pictures-circle" data-name="Images-Photography / Taking-Pictures / taking-pictures-circle" transform="translate(-242.75 -93.75)">
    <g id="Group_2" data-name="Group 2" transform="translate(243.75 94.75)">
      <g id="taking-pictures-circle">
        <path id="Oval_2" data-name="Oval 2" d="M263.485,134.219a19.735,19.735,0,1,0-19.735-19.735A19.735,19.735,0,0,0,263.485,134.219Z" transform="translate(-243.75 -94.75)" fill="none" stroke="#000051" stroke-linecap="round" stroke-linejoin="round" stroke-width="2"/>
        <path id="Shape_4" data-name="Shape 4" d="M264.788,103.381l-1.316-2.631h-7.894l-1.316,2.631h-2.631A2.632,2.632,0,0,0,249,106.013v7.894a2.632,2.632,0,0,0,2.631,2.631h15.788a2.632,2.632,0,0,0,2.631-2.631v-7.894a2.632,2.632,0,0,0-2.631-2.631Z" transform="translate(-239.791 -90.225)" fill="none" stroke="#000051" stroke-linecap="round" stroke-linejoin="round" stroke-width="2"/>
        <path id="Oval_3" data-name="Oval 3" d="M256.414,110.328a3.289,3.289,0,1,0-3.289-3.289A3.29,3.29,0,0,0,256.414,110.328Z" transform="translate(-236.68 -87.962)" fill="none" stroke="#000051" stroke-linecap="round" stroke-linejoin="round" stroke-width="2"/>
      </g>
    </g>
  </g>
</svg>
