<svg xmlns="http://www.w3.org/2000/svg" width="43.077" height="41.434" viewBox="0 0 43.077 41.434">
  <g id="Wayfinding_Lifts_lift-1" data-name="Wayfinding / Lifts / lift-1" transform="translate(-184.75 -518.68)">
    <g id="Group_19" data-name="Group 19" transform="translate(185.75 519.68)">
      <g id="Regular_19" data-name="Regular 19">
        <path id="Rectangle-path_2" data-name="Rectangle-path 2" d="M185.75,521.506a1.826,1.826,0,0,1,1.826-1.826H225a1.826,1.826,0,0,1,1.826,1.826v35.783A1.826,1.826,0,0,1,225,559.114H187.576a1.826,1.826,0,0,1-1.826-1.826Z" transform="translate(-185.75 -519.68)" fill="none" stroke="#555" stroke-linecap="round" stroke-linejoin="round" stroke-width="2"/>
        <path id="Shape_52" data-name="Shape 52" d="M189.5,551.98V529.634a1.343,1.343,0,0,1,1.369-1.314h19.169a1.343,1.343,0,0,1,1.369,1.314V551.98" transform="translate(-182.654 -512.546)" fill="none" stroke="#555" stroke-linecap="round" stroke-linejoin="round" stroke-width="2"/>
        <path id="Shape_53" data-name="Shape 53" d="M195.5,528.32V551.98" transform="translate(-177.7 -512.546)" fill="none" stroke="#555" stroke-linecap="round" stroke-linejoin="round" stroke-width="2"/>
        <path id="Shape_54" data-name="Shape 54" d="M204.5,532.577a.685.685,0,1,1,.685.657.671.671,0,0,1-.685-.657" transform="translate(-170.269 -509.574)" fill="none" stroke="#555" stroke-linecap="round" stroke-linejoin="round" stroke-width="2"/>
        <path id="Shape_55" data-name="Shape 55" d="M204.5,536.177a.685.685,0,1,1,.685.657.671.671,0,0,1-.685-.657" transform="translate(-170.269 -506.602)" fill="none" stroke="#555" stroke-linecap="round" stroke-linejoin="round" stroke-width="2"/>
        <path id="Shape_56" data-name="Shape 56" d="M192.5,524.72h10.954" transform="translate(-180.177 -515.519)" fill="none" stroke="#555" stroke-linecap="round" stroke-linejoin="round" stroke-width="2"/>
      </g>
    </g>
  </g>
</svg>
