<svg xmlns="http://www.w3.org/2000/svg" width="42.958" height="44.371" viewBox="0 0 42.958 44.371">
  <g id="Transportation_Parking_parking-p-1" data-name="Transportation / Parking / parking-p-1" transform="translate(-234.125 -1887.529)">
    <g id="Group_137" data-name="Group 137" transform="translate(235.125 1888.529)">
      <g id="parking-p-1">
        <path id="Oval_161" data-name="Oval 161" d="M256.174,1911.127a11.3,11.3,0,1,0-11.3-11.3A11.3,11.3,0,0,0,256.174,1911.127Z" transform="translate(-226.514 -1888.529)" fill="none" stroke="#555" stroke-linecap="round" stroke-linejoin="round" stroke-width="2"/>
        <path id="Shape_1057" data-name="Shape 1057" d="M249.375,1897.178H252.2a2.825,2.825,0,0,0,0-5.649h-2.825v11.3" transform="translate(-222.54 -1885.88)" fill="none" stroke="#555" stroke-linecap="round" stroke-linejoin="round" stroke-width="2"/>
        <path id="Shape_1058" data-name="Shape 1058" d="M237.327,1906.117l3.3-7.344a4.241,4.241,0,0,1,3.968-2.744h1.3" transform="translate(-233.18 -1881.906)" fill="none" stroke="#555" stroke-linecap="round" stroke-linejoin="round" stroke-width="2"/>
        <path id="Shape_1059" data-name="Shape 1059" d="M235.875,1907.829v3.2a2.825,2.825,0,0,0,5.649,0v-2.825" transform="translate(-234.463 -1871.484)" fill="none" stroke="#555" stroke-linecap="round" stroke-linejoin="round" stroke-width="2"/>
        <path id="Shape_1060" data-name="Shape 1060" d="M258.024,1907.829v3.2a2.825,2.825,0,0,1-5.649,0v-2.825" transform="translate(-219.891 -1871.484)" fill="none" stroke="#555" stroke-linecap="round" stroke-linejoin="round" stroke-width="2"/>
        <path id="Shape_1061" data-name="Shape 1061" d="M252.75,1904.279a.706.706,0,0,1,.706.706" transform="translate(-219.56 -1874.62)" fill="none" stroke="#555" stroke-linecap="round" stroke-linejoin="round" stroke-width="2"/>
        <path id="Shape_1062" data-name="Shape 1062" d="M252.375,1904.985a.706.706,0,0,1,.706-.706" transform="translate(-219.891 -1874.62)" fill="none" stroke="#555" stroke-linecap="round" stroke-linejoin="round" stroke-width="2"/>
        <path id="Shape_1063" data-name="Shape 1063" d="M253.081,1905.365a.707.707,0,0,1-.706-.706" transform="translate(-219.891 -1874.284)" fill="none" stroke="#555" stroke-linecap="round" stroke-linejoin="round" stroke-width="2"/>
        <path id="Shape_1064" data-name="Shape 1064" d="M253.456,1904.659a.707.707,0,0,1-.706.706" transform="translate(-219.56 -1874.284)" fill="none" stroke="#555" stroke-linecap="round" stroke-linejoin="round" stroke-width="2"/>
        <path id="Shape_1065" data-name="Shape 1065" d="M238.831,1904.279a.706.706,0,0,0-.706.706" transform="translate(-232.476 -1874.62)" fill="none" stroke="#555" stroke-linecap="round" stroke-linejoin="round" stroke-width="2"/>
        <path id="Shape_1066" data-name="Shape 1066" d="M239.206,1904.985a.706.706,0,0,0-.706-.706" transform="translate(-232.144 -1874.62)" fill="none" stroke="#555" stroke-linecap="round" stroke-linejoin="round" stroke-width="2"/>
        <path id="Shape_1067" data-name="Shape 1067" d="M238.5,1905.365a.707.707,0,0,0,.706-.706" transform="translate(-232.144 -1874.284)" fill="none" stroke="#555" stroke-linecap="round" stroke-linejoin="round" stroke-width="2"/>
        <path id="Shape_1068" data-name="Shape 1068" d="M238.125,1904.659a.707.707,0,0,0,.706.706" transform="translate(-232.476 -1874.284)" fill="none" stroke="#555" stroke-linecap="round" stroke-linejoin="round" stroke-width="2"/>
        <path id="Shape_1069" data-name="Shape 1069" d="M253.486,1901.279H240.774a5.65,5.65,0,0,0-5.649,5.649v4.237a2.824,2.824,0,0,0,2.825,2.825h33.9a2.824,2.824,0,0,0,2.825-2.825v-4.237a5.6,5.6,0,0,0-.753-2.825" transform="translate(-235.125 -1877.269)" fill="none" stroke="#555" stroke-linecap="round" stroke-linejoin="round" stroke-width="2"/>
      </g>
    </g>
  </g>
</svg>
