<svg xmlns="http://www.w3.org/2000/svg" width="42.2" height="42.2" viewBox="0 0 42.2 42.2">
  <g id="Sports_Yoga-Stretching_yoga-shoulder-stretch" data-name="Sports / Yoga-Stretching / yoga-shoulder-stretch" transform="translate(-405.5 -182.5)">
    <g id="Group_14" data-name="Group 14" transform="translate(406.5 183.5)">
      <g id="Regular_14" data-name="Regular 14">
        <path id="Oval_13" data-name="Oval 13" d="M419.4,193.55a5.025,5.025,0,1,0-5.025-5.025A5.024,5.024,0,0,0,419.4,193.55Z" transform="translate(-399.3 -183.5)" fill="none" stroke="#555" stroke-linecap="round" stroke-linejoin="round" stroke-width="2"/>
        <path id="Shape_37" data-name="Shape 37" d="M443.828,191H409.371a2.871,2.871,0,0,0,0,5.743h14.357v5.743h-2.871a8.625,8.625,0,0,0-8.614,8.614v2.871a2.871,2.871,0,1,0,5.743,0V211.1a2.872,2.872,0,0,1,2.871-2.871h3.968l1.926,3.853a8.575,8.575,0,0,0,7.7,4.761h3.637a2.871,2.871,0,0,0,0-5.743h-3.637a2.853,2.853,0,0,1-2.567-1.587l-2.41-4.834v-7.937h14.357a2.871,2.871,0,0,0,0-5.743Z" transform="translate(-406.5 -176.643)" fill="none" stroke="#555" stroke-linecap="round" stroke-linejoin="round" stroke-width="2"/>
        <path id="Shape_38" data-name="Shape 38" d="M415.5,197h5.743" transform="translate(-398.271 -171.157)" fill="none" stroke="#555" stroke-linecap="round" stroke-linejoin="round" stroke-width="2"/>
      </g>
    </g>
  </g>
</svg>
