<svg xmlns="http://www.w3.org/2000/svg" width="40.353" height="38.819" viewBox="0 0 40.353 38.819">
  <g id="Wayfinding_Information-Desk_information-desk-hi" data-name="Wayfinding / Information-Desk / information-desk-hi" transform="translate(-232.75 -618.68)">
    <g id="Group_23" data-name="Group 23" transform="translate(233.75 619.68)">
      <g id="Regular_23" data-name="Regular 23">
        <path id="Oval_22" data-name="Oval 22" d="M241.864,636.7a4.913,4.913,0,1,0-5.114-4.909A5.014,5.014,0,0,0,241.864,636.7Z" transform="translate(-231.636 -614.607)" fill="none" stroke="#555" stroke-linecap="round" stroke-linejoin="round" stroke-width="2"/>
        <path id="Shape_70" data-name="Shape 70" d="M236.75,643.309V638.4" transform="translate(-231.636 -606.49)" fill="none" stroke="#555" stroke-linecap="round" stroke-linejoin="round" stroke-width="2"/>
        <path id="Shape_71" data-name="Shape 71" d="M249.091,646.86v-6.675l3.009,2.31a5.27,5.27,0,0,0,6.81-.361l4.773-4.582a2.384,2.384,0,0,0,0-3.47,2.63,2.63,0,0,0-3.615,0l-4.773,4.582-3.2-2.455a7.872,7.872,0,0,0-4.788-1.621h-5.881a7.522,7.522,0,0,0-7.671,7.364v4.909" transform="translate(-233.75 -610.041)" fill="none" stroke="#555" stroke-linecap="round" stroke-linejoin="round" stroke-width="2"/>
        <path id="Shape_72" data-name="Shape 72" d="M247.25,622.56v4.909" transform="translate(-224.238 -617.651)" fill="none" stroke="#555" stroke-linecap="round" stroke-linejoin="round" stroke-width="2"/>
        <path id="Shape_73" data-name="Shape 73" d="M250.25,622.56v4.909" transform="translate(-222.125 -617.651)" fill="none" stroke="#555" stroke-linecap="round" stroke-linejoin="round" stroke-width="2"/>
        <path id="Shape_74" data-name="Shape 74" d="M247.25,624h5.114" transform="translate(-224.238 -616.636)" fill="none" stroke="#555" stroke-linecap="round" stroke-linejoin="round" stroke-width="2"/>
        <path id="Shape_75" data-name="Shape 75" d="M253.25,622.56v4.909" transform="translate(-220.011 -617.651)" fill="none" stroke="#555" stroke-linecap="round" stroke-linejoin="round" stroke-width="2"/>
        <path id="Shape_76" data-name="Shape 76" d="M262.148,619.68H246.807a2.508,2.508,0,0,0-2.557,2.455v9.818a2.508,2.508,0,0,0,2.557,2.455h2.557v4.909l6.392-4.909h6.392a2.508,2.508,0,0,0,2.557-2.455v-9.818A2.508,2.508,0,0,0,262.148,619.68Z" transform="translate(-226.352 -619.68)" fill="none" stroke="#555" stroke-linecap="round" stroke-linejoin="round" stroke-width="2"/>
      </g>
    </g>
  </g>
</svg>
