<svg xmlns="http://www.w3.org/2000/svg" width="32.85" height="41.811" viewBox="0 0 32.85 41.811">
  <g id="Wayfinding_Disability_disability-wheelchair" data-name="Wayfinding / Disability / disability-wheelchair" transform="translate(-276.719 -2153.86)">
    <g id="Group_150" data-name="Group 150" transform="translate(277.748 2154.86)">
      <g id="Regular_150" data-name="Regular 150">
        <path id="Oval_142" data-name="Oval 142" d="M294.526,2165.269a4.709,4.709,0,1,0-4.9-4.7A4.8,4.8,0,0,0,294.526,2165.269Z" transform="translate(-280.52 -2155.86)" fill="none" stroke="#555" stroke-linecap="round" stroke-linejoin="round" stroke-width="2"/>
        <path id="Shape_698" data-name="Shape 698" d="M305.047,2188.1l-3.428-6.579H293.55a2.747,2.747,0,0,1-2.8-2.688v-13.443a2.8,2.8,0,0,1,5.6,0v10.754h7a2.815,2.815,0,0,1,2.505,1.487l4.2,8.065a2.639,2.639,0,0,1-1.253,3.607,2.856,2.856,0,0,1-3.758-1.2Z" transform="translate(-279.545 -2149.93)" fill="none" stroke="#555" stroke-linecap="round" stroke-linejoin="round" stroke-width="2"/>
        <path id="Shape_699" data-name="Shape 699" d="M301.554,2184.978a11.459,11.459,0,0,1-15.3-3.937,10.522,10.522,0,0,1,4.1-14.691" transform="translate(-284.748 -2146.766)" fill="none" stroke="#555" stroke-linecap="round" stroke-linejoin="round" stroke-width="2"/>
      </g>
    </g>
  </g>
</svg>
